<mxfile host="app.diagrams.net" agent="Mozilla/5.0 (Windows NT 10.0; Win64; x64) AppleWebKit/537.36 (KHTML, like Gecko) Chrome/129.0.0.0 Safari/537.36" version="24.7.17">
  <diagram name="Page-1" id="d83QileK_7GFL91VBlUY">
    <mxGraphModel dx="1835" dy="638" grid="1" gridSize="10" guides="1" tooltips="1" connect="1" arrows="1" fold="1" page="1" pageScale="1" pageWidth="827" pageHeight="1169" math="0" shadow="0">
      <root>
        <mxCell id="0" />
        <mxCell id="1" parent="0" />
        <mxCell id="g_7Twj7FX9_FmDeo97vd-2" value="Users" style="rounded=0;whiteSpace=wrap;html=1;" vertex="1" parent="1">
          <mxGeometry x="270" y="300" width="120" height="60" as="geometry" />
        </mxCell>
        <mxCell id="g_7Twj7FX9_FmDeo97vd-9" value="Name_with_initials" style="ellipse;whiteSpace=wrap;html=1;align=center;dashed=1;" vertex="1" parent="1">
          <mxGeometry x="50" y="100" width="140" height="60" as="geometry" />
        </mxCell>
        <mxCell id="g_7Twj7FX9_FmDeo97vd-45" style="edgeStyle=orthogonalEdgeStyle;rounded=0;orthogonalLoop=1;jettySize=auto;html=1;exitX=1;exitY=1;exitDx=0;exitDy=0;" edge="1" parent="1" source="g_7Twj7FX9_FmDeo97vd-10">
          <mxGeometry relative="1" as="geometry">
            <mxPoint x="340" y="290" as="targetPoint" />
          </mxGeometry>
        </mxCell>
        <mxCell id="g_7Twj7FX9_FmDeo97vd-10" value="gender" style="ellipse;whiteSpace=wrap;html=1;align=center;dashed=1;" vertex="1" parent="1">
          <mxGeometry x="220" y="80" width="100" height="40" as="geometry" />
        </mxCell>
        <mxCell id="g_7Twj7FX9_FmDeo97vd-11" value="dob" style="ellipse;whiteSpace=wrap;html=1;align=center;" vertex="1" parent="1">
          <mxGeometry x="350" y="150" width="100" height="40" as="geometry" />
        </mxCell>
        <mxCell id="g_7Twj7FX9_FmDeo97vd-42" style="edgeStyle=orthogonalEdgeStyle;rounded=0;orthogonalLoop=1;jettySize=auto;html=1;exitX=0.5;exitY=1;exitDx=0;exitDy=0;entryX=0;entryY=0;entryDx=0;entryDy=0;" edge="1" parent="1" source="g_7Twj7FX9_FmDeo97vd-12" target="g_7Twj7FX9_FmDeo97vd-2">
          <mxGeometry relative="1" as="geometry" />
        </mxCell>
        <mxCell id="g_7Twj7FX9_FmDeo97vd-12" value="full_name" style="ellipse;whiteSpace=wrap;html=1;align=center;" vertex="1" parent="1">
          <mxGeometry x="70" y="170" width="100" height="40" as="geometry" />
        </mxCell>
        <mxCell id="g_7Twj7FX9_FmDeo97vd-32" style="edgeStyle=orthogonalEdgeStyle;rounded=0;orthogonalLoop=1;jettySize=auto;html=1;exitX=1;exitY=0.5;exitDx=0;exitDy=0;" edge="1" parent="1" source="g_7Twj7FX9_FmDeo97vd-13" target="g_7Twj7FX9_FmDeo97vd-2">
          <mxGeometry relative="1" as="geometry" />
        </mxCell>
        <mxCell id="g_7Twj7FX9_FmDeo97vd-13" value="reg_num" style="ellipse;whiteSpace=wrap;html=1;align=center;fontStyle=4;" vertex="1" parent="1">
          <mxGeometry x="60" y="280" width="100" height="40" as="geometry" />
        </mxCell>
        <mxCell id="g_7Twj7FX9_FmDeo97vd-46" style="edgeStyle=orthogonalEdgeStyle;rounded=0;orthogonalLoop=1;jettySize=auto;html=1;exitX=1;exitY=1;exitDx=0;exitDy=0;" edge="1" parent="1" source="g_7Twj7FX9_FmDeo97vd-15">
          <mxGeometry relative="1" as="geometry">
            <mxPoint x="400" y="300" as="targetPoint" />
            <Array as="points">
              <mxPoint x="470" y="114" />
              <mxPoint x="470" y="270" />
              <mxPoint x="390" y="270" />
              <mxPoint x="390" y="300" />
            </Array>
          </mxGeometry>
        </mxCell>
        <mxCell id="g_7Twj7FX9_FmDeo97vd-15" value="mobile_num" style="ellipse;shape=doubleEllipse;margin=3;whiteSpace=wrap;html=1;align=center;" vertex="1" parent="1">
          <mxGeometry x="350" y="80" width="100" height="40" as="geometry" />
        </mxCell>
        <mxCell id="g_7Twj7FX9_FmDeo97vd-48" style="edgeStyle=orthogonalEdgeStyle;rounded=0;orthogonalLoop=1;jettySize=auto;html=1;exitX=0;exitY=1;exitDx=0;exitDy=0;entryX=1;entryY=0.75;entryDx=0;entryDy=0;" edge="1" parent="1" source="g_7Twj7FX9_FmDeo97vd-16" target="g_7Twj7FX9_FmDeo97vd-2">
          <mxGeometry relative="1" as="geometry">
            <Array as="points">
              <mxPoint x="460" y="114" />
              <mxPoint x="460" y="345" />
            </Array>
          </mxGeometry>
        </mxCell>
        <mxCell id="g_7Twj7FX9_FmDeo97vd-16" value="Email" style="ellipse;whiteSpace=wrap;html=1;align=center;" vertex="1" parent="1">
          <mxGeometry x="470" y="80" width="100" height="40" as="geometry" />
        </mxCell>
        <mxCell id="g_7Twj7FX9_FmDeo97vd-51" style="edgeStyle=orthogonalEdgeStyle;rounded=0;orthogonalLoop=1;jettySize=auto;html=1;exitX=0.5;exitY=1;exitDx=0;exitDy=0;" edge="1" parent="1" source="g_7Twj7FX9_FmDeo97vd-18" target="g_7Twj7FX9_FmDeo97vd-2">
          <mxGeometry relative="1" as="geometry" />
        </mxCell>
        <mxCell id="g_7Twj7FX9_FmDeo97vd-18" value="recidential_addr" style="ellipse;whiteSpace=wrap;html=1;align=center;" vertex="1" parent="1">
          <mxGeometry x="350" y="210" width="100" height="40" as="geometry" />
        </mxCell>
        <mxCell id="g_7Twj7FX9_FmDeo97vd-47" style="edgeStyle=orthogonalEdgeStyle;rounded=0;orthogonalLoop=1;jettySize=auto;html=1;exitX=0.5;exitY=1;exitDx=0;exitDy=0;entryX=1;entryY=0.5;entryDx=0;entryDy=0;" edge="1" parent="1" source="g_7Twj7FX9_FmDeo97vd-19" target="g_7Twj7FX9_FmDeo97vd-2">
          <mxGeometry relative="1" as="geometry" />
        </mxCell>
        <mxCell id="g_7Twj7FX9_FmDeo97vd-19" value="permenant_addr" style="ellipse;whiteSpace=wrap;html=1;align=center;" vertex="1" parent="1">
          <mxGeometry x="480" y="140" width="100" height="40" as="geometry" />
        </mxCell>
        <mxCell id="g_7Twj7FX9_FmDeo97vd-49" style="edgeStyle=orthogonalEdgeStyle;rounded=0;orthogonalLoop=1;jettySize=auto;html=1;exitX=0;exitY=0.5;exitDx=0;exitDy=0;entryX=1;entryY=0.25;entryDx=0;entryDy=0;" edge="1" parent="1" source="g_7Twj7FX9_FmDeo97vd-20" target="g_7Twj7FX9_FmDeo97vd-2">
          <mxGeometry relative="1" as="geometry" />
        </mxCell>
        <mxCell id="g_7Twj7FX9_FmDeo97vd-20" value="NIC" style="ellipse;whiteSpace=wrap;html=1;align=center;" vertex="1" parent="1">
          <mxGeometry x="550" y="220" width="100" height="40" as="geometry" />
        </mxCell>
        <mxCell id="g_7Twj7FX9_FmDeo97vd-50" style="edgeStyle=orthogonalEdgeStyle;rounded=0;orthogonalLoop=1;jettySize=auto;html=1;exitX=0;exitY=1;exitDx=0;exitDy=0;" edge="1" parent="1" source="g_7Twj7FX9_FmDeo97vd-21" target="g_7Twj7FX9_FmDeo97vd-2">
          <mxGeometry relative="1" as="geometry" />
        </mxCell>
        <mxCell id="g_7Twj7FX9_FmDeo97vd-21" value="maritial_status" style="ellipse;whiteSpace=wrap;html=1;align=center;" vertex="1" parent="1">
          <mxGeometry x="550" y="280" width="100" height="40" as="geometry" />
        </mxCell>
        <mxCell id="g_7Twj7FX9_FmDeo97vd-22" value="faculty" style="ellipse;whiteSpace=wrap;html=1;align=center;" vertex="1" parent="1">
          <mxGeometry x="560" y="360" width="100" height="40" as="geometry" />
        </mxCell>
        <mxCell id="g_7Twj7FX9_FmDeo97vd-41" style="edgeStyle=orthogonalEdgeStyle;rounded=0;orthogonalLoop=1;jettySize=auto;html=1;exitX=0;exitY=0.5;exitDx=0;exitDy=0;entryX=1;entryY=0.75;entryDx=0;entryDy=0;" edge="1" parent="1" source="g_7Twj7FX9_FmDeo97vd-23" target="g_7Twj7FX9_FmDeo97vd-2">
          <mxGeometry relative="1" as="geometry">
            <Array as="points">
              <mxPoint x="475" y="440" />
              <mxPoint x="475" y="400" />
              <mxPoint x="390" y="400" />
            </Array>
          </mxGeometry>
        </mxCell>
        <mxCell id="g_7Twj7FX9_FmDeo97vd-23" value="department" style="ellipse;whiteSpace=wrap;html=1;align=center;" vertex="1" parent="1">
          <mxGeometry x="560" y="420" width="100" height="40" as="geometry" />
        </mxCell>
        <mxCell id="g_7Twj7FX9_FmDeo97vd-24" value="height" style="ellipse;whiteSpace=wrap;html=1;align=center;" vertex="1" parent="1">
          <mxGeometry x="280" y="520" width="100" height="40" as="geometry" />
        </mxCell>
        <mxCell id="g_7Twj7FX9_FmDeo97vd-25" value="weight" style="ellipse;whiteSpace=wrap;html=1;align=center;" vertex="1" parent="1">
          <mxGeometry x="130" y="520" width="100" height="40" as="geometry" />
        </mxCell>
        <mxCell id="g_7Twj7FX9_FmDeo97vd-33" style="edgeStyle=orthogonalEdgeStyle;rounded=0;orthogonalLoop=1;jettySize=auto;html=1;exitX=1;exitY=0.5;exitDx=0;exitDy=0;entryX=0;entryY=0.75;entryDx=0;entryDy=0;" edge="1" parent="1" source="g_7Twj7FX9_FmDeo97vd-26" target="g_7Twj7FX9_FmDeo97vd-2">
          <mxGeometry relative="1" as="geometry" />
        </mxCell>
        <mxCell id="g_7Twj7FX9_FmDeo97vd-26" value="guardian_name" style="ellipse;whiteSpace=wrap;html=1;align=center;" vertex="1" parent="1">
          <mxGeometry x="60" y="370" width="100" height="40" as="geometry" />
        </mxCell>
        <mxCell id="g_7Twj7FX9_FmDeo97vd-34" style="edgeStyle=orthogonalEdgeStyle;rounded=0;orthogonalLoop=1;jettySize=auto;html=1;exitX=1;exitY=0.5;exitDx=0;exitDy=0;" edge="1" parent="1" source="g_7Twj7FX9_FmDeo97vd-27">
          <mxGeometry relative="1" as="geometry">
            <mxPoint x="270" y="340" as="targetPoint" />
          </mxGeometry>
        </mxCell>
        <mxCell id="g_7Twj7FX9_FmDeo97vd-27" value="relation" style="ellipse;whiteSpace=wrap;html=1;align=center;" vertex="1" parent="1">
          <mxGeometry x="60" y="420" width="100" height="40" as="geometry" />
        </mxCell>
        <mxCell id="g_7Twj7FX9_FmDeo97vd-44" style="edgeStyle=orthogonalEdgeStyle;rounded=0;orthogonalLoop=1;jettySize=auto;html=1;exitX=0.5;exitY=1;exitDx=0;exitDy=0;" edge="1" parent="1" source="g_7Twj7FX9_FmDeo97vd-28" target="g_7Twj7FX9_FmDeo97vd-2">
          <mxGeometry relative="1" as="geometry" />
        </mxCell>
        <mxCell id="g_7Twj7FX9_FmDeo97vd-28" value="contact_num" style="ellipse;whiteSpace=wrap;html=1;align=center;" vertex="1" parent="1">
          <mxGeometry x="230" y="150" width="100" height="40" as="geometry" />
        </mxCell>
        <mxCell id="g_7Twj7FX9_FmDeo97vd-29" value="password" style="ellipse;whiteSpace=wrap;html=1;align=center;" vertex="1" parent="1">
          <mxGeometry x="400" y="505" width="100" height="45" as="geometry" />
        </mxCell>
        <mxCell id="g_7Twj7FX9_FmDeo97vd-35" style="edgeStyle=orthogonalEdgeStyle;rounded=0;orthogonalLoop=1;jettySize=auto;html=1;exitX=1;exitY=0;exitDx=0;exitDy=0;entryX=0.25;entryY=1;entryDx=0;entryDy=0;" edge="1" parent="1" source="g_7Twj7FX9_FmDeo97vd-30" target="g_7Twj7FX9_FmDeo97vd-2">
          <mxGeometry relative="1" as="geometry" />
        </mxCell>
        <mxCell id="g_7Twj7FX9_FmDeo97vd-30" value="blood_group" style="ellipse;whiteSpace=wrap;html=1;align=center;" vertex="1" parent="1">
          <mxGeometry x="200" y="470" width="100" height="40" as="geometry" />
        </mxCell>
        <mxCell id="g_7Twj7FX9_FmDeo97vd-39" style="edgeStyle=orthogonalEdgeStyle;rounded=0;orthogonalLoop=1;jettySize=auto;html=1;entryX=0.75;entryY=0;entryDx=0;entryDy=0;" edge="1" parent="1" source="g_7Twj7FX9_FmDeo97vd-31" target="g_7Twj7FX9_FmDeo97vd-2">
          <mxGeometry relative="1" as="geometry">
            <Array as="points">
              <mxPoint x="510" y="280" />
              <mxPoint x="360" y="280" />
            </Array>
          </mxGeometry>
        </mxCell>
        <mxCell id="g_7Twj7FX9_FmDeo97vd-31" value="profile_photo" style="ellipse;whiteSpace=wrap;html=1;align=center;" vertex="1" parent="1">
          <mxGeometry x="510" y="505" width="100" height="40" as="geometry" />
        </mxCell>
        <mxCell id="g_7Twj7FX9_FmDeo97vd-36" style="edgeStyle=orthogonalEdgeStyle;rounded=0;orthogonalLoop=1;jettySize=auto;html=1;entryX=0.433;entryY=1.044;entryDx=0;entryDy=0;entryPerimeter=0;" edge="1" parent="1" source="g_7Twj7FX9_FmDeo97vd-24" target="g_7Twj7FX9_FmDeo97vd-2">
          <mxGeometry relative="1" as="geometry" />
        </mxCell>
        <mxCell id="g_7Twj7FX9_FmDeo97vd-37" style="edgeStyle=orthogonalEdgeStyle;rounded=0;orthogonalLoop=1;jettySize=auto;html=1;exitX=1;exitY=0.5;exitDx=0;exitDy=0;entryX=0.889;entryY=1.033;entryDx=0;entryDy=0;entryPerimeter=0;" edge="1" parent="1" source="g_7Twj7FX9_FmDeo97vd-25" target="g_7Twj7FX9_FmDeo97vd-2">
          <mxGeometry relative="1" as="geometry">
            <Array as="points">
              <mxPoint x="230" y="580" />
              <mxPoint x="390" y="580" />
              <mxPoint x="390" y="360" />
              <mxPoint x="350" y="360" />
              <mxPoint x="350" y="362" />
            </Array>
          </mxGeometry>
        </mxCell>
        <mxCell id="g_7Twj7FX9_FmDeo97vd-38" style="edgeStyle=orthogonalEdgeStyle;rounded=0;orthogonalLoop=1;jettySize=auto;html=1;exitX=0.5;exitY=0;exitDx=0;exitDy=0;entryX=1.006;entryY=0.867;entryDx=0;entryDy=0;entryPerimeter=0;" edge="1" parent="1" source="g_7Twj7FX9_FmDeo97vd-29" target="g_7Twj7FX9_FmDeo97vd-2">
          <mxGeometry relative="1" as="geometry" />
        </mxCell>
        <mxCell id="g_7Twj7FX9_FmDeo97vd-40" style="edgeStyle=orthogonalEdgeStyle;rounded=0;orthogonalLoop=1;jettySize=auto;html=1;exitX=0;exitY=0.5;exitDx=0;exitDy=0;entryX=0.967;entryY=0.378;entryDx=0;entryDy=0;entryPerimeter=0;" edge="1" parent="1" source="g_7Twj7FX9_FmDeo97vd-22" target="g_7Twj7FX9_FmDeo97vd-2">
          <mxGeometry relative="1" as="geometry" />
        </mxCell>
        <mxCell id="g_7Twj7FX9_FmDeo97vd-43" style="edgeStyle=orthogonalEdgeStyle;rounded=0;orthogonalLoop=1;jettySize=auto;html=1;exitX=1;exitY=1;exitDx=0;exitDy=0;entryX=0.333;entryY=0.011;entryDx=0;entryDy=0;entryPerimeter=0;" edge="1" parent="1" source="g_7Twj7FX9_FmDeo97vd-9" target="g_7Twj7FX9_FmDeo97vd-2">
          <mxGeometry relative="1" as="geometry">
            <Array as="points">
              <mxPoint x="170" y="230" />
              <mxPoint x="310" y="230" />
            </Array>
          </mxGeometry>
        </mxCell>
        <mxCell id="g_7Twj7FX9_FmDeo97vd-53" style="edgeStyle=orthogonalEdgeStyle;rounded=0;orthogonalLoop=1;jettySize=auto;html=1;entryX=0;entryY=0.25;entryDx=0;entryDy=0;" edge="1" parent="1" source="g_7Twj7FX9_FmDeo97vd-52" target="g_7Twj7FX9_FmDeo97vd-2">
          <mxGeometry relative="1" as="geometry">
            <Array as="points">
              <mxPoint x="-10" y="700" />
              <mxPoint x="-10" y="340" />
              <mxPoint x="270" y="340" />
            </Array>
          </mxGeometry>
        </mxCell>
        <mxCell id="g_7Twj7FX9_FmDeo97vd-55" style="edgeStyle=orthogonalEdgeStyle;rounded=0;orthogonalLoop=1;jettySize=auto;html=1;exitX=1;exitY=0.5;exitDx=0;exitDy=0;entryX=0;entryY=0.5;entryDx=0;entryDy=0;" edge="1" parent="1" source="g_7Twj7FX9_FmDeo97vd-52" target="g_7Twj7FX9_FmDeo97vd-54">
          <mxGeometry relative="1" as="geometry" />
        </mxCell>
        <mxCell id="g_7Twj7FX9_FmDeo97vd-52" value="make" style="shape=rhombus;perimeter=rhombusPerimeter;whiteSpace=wrap;html=1;align=center;" vertex="1" parent="1">
          <mxGeometry x="100" y="670" width="120" height="60" as="geometry" />
        </mxCell>
        <mxCell id="g_7Twj7FX9_FmDeo97vd-54" value="Appoinment" style="whiteSpace=wrap;html=1;align=center;" vertex="1" parent="1">
          <mxGeometry x="380" y="710" width="100" height="40" as="geometry" />
        </mxCell>
        <mxCell id="g_7Twj7FX9_FmDeo97vd-57" style="edgeStyle=orthogonalEdgeStyle;rounded=0;orthogonalLoop=1;jettySize=auto;html=1;entryX=0;entryY=1;entryDx=0;entryDy=0;" edge="1" parent="1" source="g_7Twj7FX9_FmDeo97vd-56" target="g_7Twj7FX9_FmDeo97vd-54">
          <mxGeometry relative="1" as="geometry" />
        </mxCell>
        <mxCell id="g_7Twj7FX9_FmDeo97vd-56" value="appoinrment_date" style="ellipse;whiteSpace=wrap;html=1;align=center;" vertex="1" parent="1">
          <mxGeometry x="220" y="800" width="110" height="50" as="geometry" />
        </mxCell>
        <mxCell id="g_7Twj7FX9_FmDeo97vd-59" style="edgeStyle=orthogonalEdgeStyle;rounded=0;orthogonalLoop=1;jettySize=auto;html=1;entryX=0.5;entryY=0;entryDx=0;entryDy=0;" edge="1" parent="1" source="g_7Twj7FX9_FmDeo97vd-58" target="g_7Twj7FX9_FmDeo97vd-54">
          <mxGeometry relative="1" as="geometry" />
        </mxCell>
        <mxCell id="g_7Twj7FX9_FmDeo97vd-58" value="&lt;u&gt;appoinment_id&lt;/u&gt;" style="ellipse;whiteSpace=wrap;html=1;align=center;" vertex="1" parent="1">
          <mxGeometry x="380" y="620" width="100" height="50" as="geometry" />
        </mxCell>
        <mxCell id="g_7Twj7FX9_FmDeo97vd-62" style="edgeStyle=orthogonalEdgeStyle;rounded=0;orthogonalLoop=1;jettySize=auto;html=1;exitX=0.5;exitY=0;exitDx=0;exitDy=0;entryX=0.5;entryY=1;entryDx=0;entryDy=0;" edge="1" parent="1" source="g_7Twj7FX9_FmDeo97vd-61" target="g_7Twj7FX9_FmDeo97vd-54">
          <mxGeometry relative="1" as="geometry" />
        </mxCell>
        <mxCell id="g_7Twj7FX9_FmDeo97vd-61" value="&lt;u&gt;doctor_id&lt;/u&gt;" style="ellipse;whiteSpace=wrap;html=1;align=center;" vertex="1" parent="1">
          <mxGeometry x="400" y="820" width="100" height="40" as="geometry" />
        </mxCell>
        <mxCell id="g_7Twj7FX9_FmDeo97vd-64" style="edgeStyle=orthogonalEdgeStyle;rounded=0;orthogonalLoop=1;jettySize=auto;html=1;exitX=0.5;exitY=1;exitDx=0;exitDy=0;entryX=0.75;entryY=0;entryDx=0;entryDy=0;" edge="1" parent="1" source="g_7Twj7FX9_FmDeo97vd-63" target="g_7Twj7FX9_FmDeo97vd-54">
          <mxGeometry relative="1" as="geometry" />
        </mxCell>
        <mxCell id="g_7Twj7FX9_FmDeo97vd-63" value="&lt;u&gt;appointment_num&lt;/u&gt;" style="ellipse;whiteSpace=wrap;html=1;align=center;" vertex="1" parent="1">
          <mxGeometry x="490" y="620" width="130" height="50" as="geometry" />
        </mxCell>
        <mxCell id="g_7Twj7FX9_FmDeo97vd-65" value="doctor" style="rounded=1;arcSize=10;whiteSpace=wrap;html=1;align=center;" vertex="1" parent="1">
          <mxGeometry x="330" y="980" width="100" height="40" as="geometry" />
        </mxCell>
        <mxCell id="g_7Twj7FX9_FmDeo97vd-66" style="edgeStyle=orthogonalEdgeStyle;rounded=0;orthogonalLoop=1;jettySize=auto;html=1;exitX=0.5;exitY=1;exitDx=0;exitDy=0;entryX=0.407;entryY=0.1;entryDx=0;entryDy=0;entryPerimeter=0;" edge="1" parent="1" source="g_7Twj7FX9_FmDeo97vd-61" target="g_7Twj7FX9_FmDeo97vd-65">
          <mxGeometry relative="1" as="geometry" />
        </mxCell>
        <mxCell id="g_7Twj7FX9_FmDeo97vd-68" style="edgeStyle=orthogonalEdgeStyle;rounded=0;orthogonalLoop=1;jettySize=auto;html=1;exitX=1;exitY=0.5;exitDx=0;exitDy=0;entryX=0.25;entryY=0;entryDx=0;entryDy=0;" edge="1" parent="1" source="g_7Twj7FX9_FmDeo97vd-67" target="g_7Twj7FX9_FmDeo97vd-65">
          <mxGeometry relative="1" as="geometry" />
        </mxCell>
        <mxCell id="g_7Twj7FX9_FmDeo97vd-67" value="doctor_name" style="ellipse;whiteSpace=wrap;html=1;align=center;" vertex="1" parent="1">
          <mxGeometry x="130" y="930" width="100" height="40" as="geometry" />
        </mxCell>
        <mxCell id="g_7Twj7FX9_FmDeo97vd-75" style="edgeStyle=orthogonalEdgeStyle;rounded=0;orthogonalLoop=1;jettySize=auto;html=1;exitX=1;exitY=0.5;exitDx=0;exitDy=0;entryX=0;entryY=0.75;entryDx=0;entryDy=0;" edge="1" parent="1" source="g_7Twj7FX9_FmDeo97vd-69" target="g_7Twj7FX9_FmDeo97vd-65">
          <mxGeometry relative="1" as="geometry" />
        </mxCell>
        <mxCell id="g_7Twj7FX9_FmDeo97vd-69" value="nic" style="ellipse;whiteSpace=wrap;html=1;align=center;" vertex="1" parent="1">
          <mxGeometry x="110" y="1000" width="100" height="40" as="geometry" />
        </mxCell>
        <mxCell id="g_7Twj7FX9_FmDeo97vd-76" style="edgeStyle=orthogonalEdgeStyle;rounded=0;orthogonalLoop=1;jettySize=auto;html=1;entryX=0;entryY=1;entryDx=0;entryDy=0;" edge="1" parent="1" source="g_7Twj7FX9_FmDeo97vd-70" target="g_7Twj7FX9_FmDeo97vd-65">
          <mxGeometry relative="1" as="geometry" />
        </mxCell>
        <mxCell id="g_7Twj7FX9_FmDeo97vd-70" value="contact_no" style="ellipse;whiteSpace=wrap;html=1;align=center;" vertex="1" parent="1">
          <mxGeometry x="120" y="1060" width="100" height="40" as="geometry" />
        </mxCell>
        <mxCell id="g_7Twj7FX9_FmDeo97vd-77" style="edgeStyle=orthogonalEdgeStyle;rounded=0;orthogonalLoop=1;jettySize=auto;html=1;exitX=1;exitY=0;exitDx=0;exitDy=0;entryX=0.25;entryY=1;entryDx=0;entryDy=0;" edge="1" parent="1" source="g_7Twj7FX9_FmDeo97vd-71" target="g_7Twj7FX9_FmDeo97vd-65">
          <mxGeometry relative="1" as="geometry" />
        </mxCell>
        <mxCell id="g_7Twj7FX9_FmDeo97vd-71" value="address" style="ellipse;whiteSpace=wrap;html=1;align=center;" vertex="1" parent="1">
          <mxGeometry x="230" y="1100" width="100" height="40" as="geometry" />
        </mxCell>
        <mxCell id="g_7Twj7FX9_FmDeo97vd-72" value="email" style="ellipse;whiteSpace=wrap;html=1;align=center;" vertex="1" parent="1">
          <mxGeometry x="350" y="1100" width="100" height="40" as="geometry" />
        </mxCell>
        <mxCell id="g_7Twj7FX9_FmDeo97vd-79" style="edgeStyle=orthogonalEdgeStyle;rounded=0;orthogonalLoop=1;jettySize=auto;html=1;entryX=0.847;entryY=1.067;entryDx=0;entryDy=0;entryPerimeter=0;" edge="1" parent="1" source="g_7Twj7FX9_FmDeo97vd-73" target="g_7Twj7FX9_FmDeo97vd-65">
          <mxGeometry relative="1" as="geometry">
            <mxPoint x="420" y="1030" as="targetPoint" />
            <Array as="points">
              <mxPoint x="460" y="1120" />
              <mxPoint x="460" y="1023" />
            </Array>
          </mxGeometry>
        </mxCell>
        <mxCell id="g_7Twj7FX9_FmDeo97vd-73" value="gender" style="ellipse;whiteSpace=wrap;html=1;align=center;" vertex="1" parent="1">
          <mxGeometry x="470" y="1100" width="100" height="40" as="geometry" />
        </mxCell>
        <mxCell id="g_7Twj7FX9_FmDeo97vd-80" style="edgeStyle=orthogonalEdgeStyle;rounded=0;orthogonalLoop=1;jettySize=auto;html=1;entryX=1;entryY=0.5;entryDx=0;entryDy=0;" edge="1" parent="1" source="g_7Twj7FX9_FmDeo97vd-74" target="g_7Twj7FX9_FmDeo97vd-65">
          <mxGeometry relative="1" as="geometry">
            <Array as="points">
              <mxPoint x="630" y="1080" />
              <mxPoint x="505" y="1080" />
              <mxPoint x="505" y="1000" />
            </Array>
          </mxGeometry>
        </mxCell>
        <mxCell id="g_7Twj7FX9_FmDeo97vd-74" value="password" style="ellipse;whiteSpace=wrap;html=1;align=center;" vertex="1" parent="1">
          <mxGeometry x="580" y="1100" width="100" height="40" as="geometry" />
        </mxCell>
        <mxCell id="g_7Twj7FX9_FmDeo97vd-78" style="edgeStyle=orthogonalEdgeStyle;rounded=0;orthogonalLoop=1;jettySize=auto;html=1;exitX=0.5;exitY=0;exitDx=0;exitDy=0;entryX=0.593;entryY=0.983;entryDx=0;entryDy=0;entryPerimeter=0;" edge="1" parent="1" source="g_7Twj7FX9_FmDeo97vd-72" target="g_7Twj7FX9_FmDeo97vd-65">
          <mxGeometry relative="1" as="geometry" />
        </mxCell>
        <mxCell id="g_7Twj7FX9_FmDeo97vd-83" style="edgeStyle=orthogonalEdgeStyle;rounded=0;orthogonalLoop=1;jettySize=auto;html=1;entryX=1;entryY=1;entryDx=0;entryDy=0;" edge="1" parent="1" source="g_7Twj7FX9_FmDeo97vd-82" target="g_7Twj7FX9_FmDeo97vd-54">
          <mxGeometry relative="1" as="geometry" />
        </mxCell>
        <mxCell id="g_7Twj7FX9_FmDeo97vd-82" value="cause" style="ellipse;whiteSpace=wrap;html=1;align=center;" vertex="1" parent="1">
          <mxGeometry x="530" y="770" width="100" height="40" as="geometry" />
        </mxCell>
        <mxCell id="g_7Twj7FX9_FmDeo97vd-85" style="edgeStyle=orthogonalEdgeStyle;rounded=0;orthogonalLoop=1;jettySize=auto;html=1;exitX=0;exitY=0.5;exitDx=0;exitDy=0;" edge="1" parent="1" source="g_7Twj7FX9_FmDeo97vd-84" target="g_7Twj7FX9_FmDeo97vd-54">
          <mxGeometry relative="1" as="geometry" />
        </mxCell>
        <mxCell id="g_7Twj7FX9_FmDeo97vd-84" value="status" style="ellipse;whiteSpace=wrap;html=1;align=center;" vertex="1" parent="1">
          <mxGeometry x="540" y="700" width="100" height="40" as="geometry" />
        </mxCell>
        <mxCell id="g_7Twj7FX9_FmDeo97vd-86" value="admin" style="whiteSpace=wrap;html=1;align=center;" vertex="1" parent="1">
          <mxGeometry x="790" y="620" width="100" height="40" as="geometry" />
        </mxCell>
        <mxCell id="g_7Twj7FX9_FmDeo97vd-87" value="&lt;u&gt;admin_id&lt;/u&gt;" style="ellipse;whiteSpace=wrap;html=1;align=center;" vertex="1" parent="1">
          <mxGeometry x="810" y="520" width="100" height="40" as="geometry" />
        </mxCell>
        <mxCell id="g_7Twj7FX9_FmDeo97vd-88" value="username" style="ellipse;whiteSpace=wrap;html=1;align=center;" vertex="1" parent="1">
          <mxGeometry x="827" y="730" width="100" height="40" as="geometry" />
        </mxCell>
        <mxCell id="g_7Twj7FX9_FmDeo97vd-89" style="edgeStyle=orthogonalEdgeStyle;rounded=0;orthogonalLoop=1;jettySize=auto;html=1;entryX=0.673;entryY=1.05;entryDx=0;entryDy=0;entryPerimeter=0;" edge="1" parent="1" source="g_7Twj7FX9_FmDeo97vd-88" target="g_7Twj7FX9_FmDeo97vd-86">
          <mxGeometry relative="1" as="geometry" />
        </mxCell>
        <mxCell id="g_7Twj7FX9_FmDeo97vd-90" style="edgeStyle=orthogonalEdgeStyle;rounded=0;orthogonalLoop=1;jettySize=auto;html=1;exitX=0.5;exitY=1;exitDx=0;exitDy=0;entryX=0.373;entryY=-0.1;entryDx=0;entryDy=0;entryPerimeter=0;" edge="1" parent="1" source="g_7Twj7FX9_FmDeo97vd-87" target="g_7Twj7FX9_FmDeo97vd-86">
          <mxGeometry relative="1" as="geometry" />
        </mxCell>
        <mxCell id="g_7Twj7FX9_FmDeo97vd-92" style="edgeStyle=orthogonalEdgeStyle;rounded=0;orthogonalLoop=1;jettySize=auto;html=1;entryX=1;entryY=0.25;entryDx=0;entryDy=0;" edge="1" parent="1" source="g_7Twj7FX9_FmDeo97vd-91" target="g_7Twj7FX9_FmDeo97vd-86">
          <mxGeometry relative="1" as="geometry" />
        </mxCell>
        <mxCell id="g_7Twj7FX9_FmDeo97vd-91" value="password" style="ellipse;whiteSpace=wrap;html=1;align=center;" vertex="1" parent="1">
          <mxGeometry x="950" y="620" width="100" height="40" as="geometry" />
        </mxCell>
      </root>
    </mxGraphModel>
  </diagram>
</mxfile>
